# xmcd
#
# Track frame offsets:
#	150
#	19143
#	39102
#	54435
#	72098
#	86512
#	103779
#	120703
#	136105
#	151665
#	168231
#	185896
#	200385
#	216860
#	231676
#	245945
#	265432
#	283291
#	299190
#	314831
#	330967
#	343138
#
# Disc length: 4755 seconds
#
# Revision: 0
# Processed by: cddbd v1.5.2PL0 Copyright (c) Steve Scherf et al.
# Submitted via: EasyCDDAExtractor 16.0.9.1
#
DISCID=5d129116
DTITLE=Various Artist - Viva Super Dance Vol.47
DYEAR=2004
DGENRE=Dance
TTITLE0=Slinkee Minx - Summer Rain (Zander Radio Edit)
TTITLE1=Cappella - U Got 2 Let The Music 2004 (DJ Shog Mix Edit)
TTITLE2=Friday Night Posse - I Need A Man
TTITLE3=Angel City - Do You Know
TTITLE4=Audio Sweet - Sunschine After The Rain 2004
TTITLE5=Northern Beat feat. Angie Stone - Rockin' For Myself 2004
TTITLE6=Bass Inferno Inc. - Keep The Fire Burning
TTITLE7=Kasa - Stay (Motion Radio Edit)
TTITLE8=Brothers - Yes Sir, I Can Boogie
TTITLE9=Tooga feat. Bailay - Behind Blue Eyes
TTITLE10=Delphinus vs. Mat B. - Till The Day
TTITLE11=Tracy Cole - In The Shadows (Almighty Radio Edit)
TTITLE12=Angel Of Love - Emotions
TTITLE13=Parla and Paradoux - Close Your Eyes
TTITLE14=Wasabi - Make You Move
TTITLE15=Start Noise - YMDJ
TTITLE16=Welss and Fargo - Night In Palma (Master Blaster Remix Edit)
TTITLE17=Pulsedriver - Slammin' (Tune Up! Edit)
TTITLE18=Sylver - Love Is Angel (Radio Edit)
TTITLE19=Milk Inc. feat. Silvy - I Don't Care
TTITLE20=JX - Restless
TTITLE21=Master Blaster - Dial My Number
EXTD=
EXTT0=
EXTT1=
EXTT2=
EXTT3=
EXTT4=
EXTT5=
EXTT6=
EXTT7=
EXTT8=
EXTT9=
EXTT10=
EXTT11=
EXTT12=
EXTT13=
EXTT14=
EXTT15=
EXTT16=
EXTT17=
EXTT18=
EXTT19=
EXTT20=
EXTT21=
PLAYORDER=
